<?xml version="1.0" standalone="no"?>
<!DOCTYPE svg PUBLIC "-//W3C//DTD SVG 20010904//EN"
 "http://www.w3.org/TR/2001/REC-SVG-20010904/DTD/svg10.dtd">
<svg version="1.0" xmlns="http://www.w3.org/2000/svg"
 width="500.000000pt" height="500.000000pt" viewBox="0 0 500.000000 500.000000"
 preserveAspectRatio="xMidYMid meet">
<metadata>
Created by potrace 1.11, written by Peter Selinger 2001-2013
</metadata>
<g transform="translate(0.000000,500.000000) scale(0.100000,-0.100000)"
fill="#000000" stroke="none">
<path d="M0 3925 c0 -591 3 -1075 6 -1075 9 0 81 160 108 240 59 179 58 170
66 895 6 572 10 680 24 740 9 38 20 73 24 77 4 3 43 14 87 23 67 13 180 16
705 19 545 2 637 5 720 20 109 20 276 73 347 110 l48 25 -1067 1 -1068 0 0
-1075z"/>
<path d="M2883 4974 c71 -37 238 -90 347 -110 83 -15 175 -18 720 -20 525 -3
638 -6 705 -19 44 -9 83 -20 87 -23 4 -4 15 -39 24 -77 14 -60 18 -166 24
-740 l7 -670 25 -105 c14 -58 42 -145 61 -193 34 -84 103 -217 112 -217 3 0 5
495 5 1100 l0 1100 -1082 0 -1083 -1 48 -25z"/>
<path d="M1325 4203 c-174 -22 -377 -81 -399 -116 -26 -39 -66 -179 -87 -297
-22 -132 -27 -351 -9 -470 35 -233 128 -451 266 -622 73 -90 82 -90 190 10 93
85 131 143 121 184 -4 15 -31 59 -62 98 -135 178 -196 472 -151 724 l18 96 36
10 c246 68 594 9 776 -130 135 -104 155 -100 301 59 41 44 75 90 75 100 0 43
-200 187 -350 252 -174 75 -356 110 -565 107 -71 0 -143 -3 -160 -5z"/>
<path d="M3247 4195 c-157 -26 -314 -78 -424 -141 -138 -80 -253 -173 -253
-205 0 -20 130 -167 182 -206 35 -25 77 -30 111 -11 12 6 50 32 83 58 183 140
523 197 776 129 l36 -9 17 -96 c46 -253 -15 -545 -150 -724 -31 -39 -58 -83
-62 -98 -10 -41 28 -99 121 -184 108 -100 117 -100 189 -10 187 232 280 508
279 833 -1 197 -38 410 -93 525 -23 47 -27 50 -103 77 -143 50 -256 68 -446
72 -122 3 -202 0 -263 -10z"/>
<path d="M1857 3162 l-618 -618 553 -555 c304 -305 586 -586 626 -624 l72 -69
621 624 620 624 -618 618 c-340 340 -622 618 -628 618 -6 0 -288 -278 -628
-618z m998 -992 l-370 -370 -370 370 -370 370 370 370 370 370 370 -370 370
-370 -370 -370z"/>
<path d="M1122 2414 c-58 -61 -144 -194 -188 -290 -134 -296 -153 -700 -48
-1027 40 -121 36 -118 170 -160 344 -108 749 -80 1056 74 130 65 288 186 288
221 0 23 -153 193 -192 214 -53 28 -90 18 -166 -41 -160 -125 -424 -192 -653
-165 -56 6 -118 17 -138 23 -32 11 -38 18 -49 62 -20 77 -27 282 -12 372 23
145 85 310 143 379 44 53 77 107 77 126 0 42 -36 91 -126 173 -52 47 -100 85
-106 85 -6 0 -31 -21 -56 -46z"/>
<path d="M3686 2375 c-90 -82 -126 -131 -126 -173 0 -19 33 -73 77 -126 58
-69 120 -234 143 -379 15 -90 8 -295 -12 -372 -11 -44 -17 -51 -49 -62 -77
-25 -234 -36 -340 -23 -186 21 -330 74 -451 166 -77 58 -114 67 -166 40 -39
-21 -192 -191 -192 -214 0 -35 157 -155 287 -221 306 -154 713 -182 1057 -74
134 42 130 39 170 160 46 144 67 288 67 453 0 293 -67 526 -215 749 -61 91
-124 161 -146 161 -5 0 -52 -38 -104 -85z"/>
<path d="M4977 2257 c-34 -52 -90 -174 -117 -255 -64 -193 -62 -176 -69 -902
-6 -596 -9 -673 -25 -740 -10 -41 -20 -77 -22 -79 -2 -2 -29 -10 -61 -19 -48
-13 -172 -16 -718 -22 -563 -6 -673 -9 -750 -24 -162 -31 -336 -99 -465 -181
l-55 -35 1153 0 1152 0 0 1140 c0 627 -2 1140 -4 1140 -2 0 -10 -10 -19 -23z"/>
<path d="M0 1123 l0 -1123 1138 0 1137 0 -55 35 c-129 82 -303 150 -465 181
-77 15 -187 18 -750 24 -546 6 -670 9 -718 22 -32 9 -60 17 -62 19 -2 2 -11
38 -21 79 -15 65 -18 160 -24 740 -8 723 -7 714 -69 898 -17 50 -48 126 -70
169 l-40 78 -1 -1122z"/>
</g>
</svg>
